<svg version="1.1" xmlns="http://www.w3.org/2000/svg" xmlns:xlink="http://www.w3.org/1999/xlink" width="512" height="512" viewBox="0,0,256,256"><g fill="#870808" fill-rule="nonzero" stroke="none" stroke-width="1" stroke-linecap="butt" stroke-linejoin="miter" stroke-miterlimit="10" stroke-dasharray="" stroke-dashoffset="0" font-family="none" font-weight="none" font-size="none" text-anchor="none" style="mix-blend-mode: normal"><g transform="translate(-0.04728,-0.00558) scale(10.66667,10.66667)"><path d="M11.692,23c-0.79602,0.00204 -1.55978,-0.31448 -2.121,-0.879l-3.387,-3.421c-0.29099,-0.24385 -0.4188,-0.63145 -0.32993,-1.00055c0.08887,-0.36911 0.3791,-0.65605 0.74919,-0.74073c0.37009,-0.08467 0.75621,0.04753 0.99674,0.34128l3.384,3.414c0.39549,0.37524 1.01551,0.37524 1.411,0l5.414,-5.414c0.39047,-0.39074 1.02376,-0.39097 1.4145,-0.0005c0.39074,0.39047 0.39097,1.02376 0.0005,1.4145l-5.415,5.414c-0.56115,0.56135 -1.32328,0.87527 -2.117,0.872zM7,22c0,-0.55228 -0.44772,-1 -1,-1h-0.317c-1.75778,-0.03373 -3.26425,-1.26584 -3.646,-2.982c-0.22279,-1.46921 0.51522,-2.91707 1.835,-3.6c0.95405,-0.52815 1.30687,-1.72473 0.792,-2.686c-1.05906,-2.01985 -0.88142,-4.46549 0.45842,-6.31109c1.33984,-1.8456 3.61019,-2.77201 5.85874,-2.39064c2.24855,0.38137 4.08647,2.00456 4.74284,4.18873c0.3,0.98019 1.06514,1.7487 2.044,2.053c2.69256,0.81878 4.44786,3.40652 4.213,6.211c-0.23577,2.42029 -1.94542,4.44176 -4.293,5.076c-0.51791,0.17729 -0.79701,0.73804 -0.62621,1.25813c0.17081,0.52008 0.72803,0.80617 1.25021,0.64187c3.3665,-0.96069 5.69143,-4.03257 5.70163,-7.53345c0.0102,-3.50088 -2.29679,-6.58626 -5.65763,-7.56655c-0.34858,-0.10862 -0.61962,-0.38454 -0.722,-0.735c-1.08865,-3.49827 -4.41455,-5.80994 -8.07289,-5.61108c-3.65834,0.19886 -6.71407,2.85742 -7.41711,6.45308c-0.35145,1.767 -0.06815,3.60135 0.8,5.18c-2.07558,1.07021 -3.2372,3.34516 -2.887,5.654c0.53704,2.69457 2.87887,4.65096 5.626,4.7h0.317c0.55228,0 1,-0.44772 1,-1z"></path></g></g></svg>